<?xml version="1.0" standalone="no"?>
<!DOCTYPE svg PUBLIC "-//W3C//DTD SVG 1.1//EN" "http://www.w3.org/Graphics/SVG/1.1/DTD/svg11.dtd">
<svg xmlns="http://www.w3.org/2000/svg">
<metadata>Generated by Fontastic.me</metadata>
<defs>
<font id="framocons" horiz-adv-x="512">
<font-face font-family="framocons" units-per-em="512" ascent="480" descent="-32"/>
<missing-glyph horiz-adv-x="512" />

<glyph glyph-name="accept" unicode="&#57350;" d="M177 160l285 284 50-51-284-284 0 0-51-50-177 177 50 51z"/>
<glyph glyph-name="plus-alt" unicode="&#57351;" d="M278 275l0 118-36 0 0-118-123 0 0-36 123 0 0-120 36 0 0 120 115 0 0 36z m-210-207l376 0 0 376-376 0z m-68 444l512 0 0-512-512 0z"/>
<glyph glyph-name="plus-alt-2" unicode="&#57352;" d="M278 275l0 118-36 0 0-118-123 0 0-36 123 0 0-120 36 0 0 120 115 0 0 36z m-210-19c0-104 84-188 188-188 104 0 188 84 188 188 0 104-84 188-188 188-104 0-188-84-188-188z m-68 0c0 141 115 256 256 256 141 0 256-115 256-256 0-141-115-256-256-256-141 0-256 115-256 256z"/>
<glyph glyph-name="circle" unicode="&#57353;" d="M256 68c104 0 188 84 188 188 0 104-84 188-188 188-104 0-188-84-188-188 0-104 84-188 188-188z m0-68c-141 0-256 115-256 256 0 141 115 256 256 256 141 0 256-115 256-256 0-141-115-256-256-256z"/>
<glyph glyph-name="equals" unicode="&#57354;" d="M-17 188l563 0 0-69-563 0z m0 205l563 0 0-69-563 0z"/>
<glyph glyph-name="square" unicode="&#57355;" d="M68 68l376 0 0 376-376 0z m-68 444l512 0 0-512-512 0z"/>
<glyph glyph-name="equals-alt" unicode="&#57356;" d="M119 222l274 0 0-34-274 0z m0 102l274 0 0-34-274 0z m-51-256l376 0 0 376-376 0z m-68 444l512 0 0-512-512 0z"/>
<glyph glyph-name="favorite" unicode="&#57357;" d="M152 49l-34-23-7 3 12 39 43 31z m104 115l90-65-30 111 92 73-116 4-36 106-36-106-116-4 92-73-30-111z m0-39l-148-106 51 179-142 114 179 5 60 176 60-177 179-4-142-114 51-179z"/>
<glyph glyph-name="food" unicode="&#57358;" d="M171 341l102 0 0-34-102 0z m153 171l34 0 0-512-34 0z m17 0c0 0 0 0 48 0 27 0 20-97 20-97 0 0 0-65 0-110 0-109-68-128-68-128z m-239-171l103 0 0-34-103 0z m69 171l34 0 0-512-34 0z m68 0l34 0 0-188-34 0z m-137 0l35 0 0-188-35 0z"/>
<glyph glyph-name="minus" unicode="&#57359;" d="M512 290l0-68-512 0 0 68"/>
<glyph glyph-name="minus-alt" unicode="&#57360;" d="M393 275l0-36-274 0 0 36m-51-207l376 0 0 376-376 0z m-68 444l512 0 0-512-512 0z"/>
<glyph glyph-name="minus-alt-2" unicode="&#57361;" d="M393 275l0-36-274 0 0 36m-51-19c0-104 84-188 188-188 104 0 188 84 188 188 0 104-84 188-188 188-104 0-188-84-188-188z m-68 0c0 141 115 256 256 256 141 0 256-115 256-256 0-141-115-256-256-256-141 0-256 115-256 256z"/>
<glyph glyph-name="music" unicode="&#57362;" d="M235 170l0 342 171 0 0-76-95 0 0-360-1 0c-4-43-40-76-84-76l-38 0c-47 0-86 38-86 85 0 47 39 86 86 86l38 0c3 0 6-1 9-1z"/>
<glyph glyph-name="music-alt" unicode="&#57363;" d="M415 222l0 214-189 0 0-360-1 0c-5-43-41-76-85-76l-37 0c-48 0-86 38-86 85 0 47 38 86 86 86l37 0c3 0 7-1 10-1l0 342 341 0 0-375 0 0c-5-39-37-69-77-69l-21 0c-42 0-76 35-76 77 0 42 34 77 76 77l21 0c1 0 1 0 1 0z"/>
<glyph glyph-name="plus" unicode="&#57364;" d="M298 292l0 220-69 0 0-220-229 0 0-68 229 0 0-224 69 0 0 224 214 0 0 68z"/>
<glyph glyph-name="wordpress" unicode="&#57371;" d="M26 256c0-127 103-230 230-230 127 0 230 103 230 230 0 127-103 230-230 230-127 0-230-103-230-230z m17 0c0 31 7 60 19 87l101-278c-71 34-120 107-120 191z m213-213c-21 0-41 3-60 9l64 185 65-179c1-1 1-2 2-3-22-7-46-12-71-12z m172 217c12 30 16 55 16 76 0 8 0 15-1 22 16-30 26-65 26-102 0-78-43-147-106-184z m-46 65c8-14 18-32 18-58 0-18-6-41-17-69l-21-71-77 229c13 0 25 2 25 2 11 1 10 18-2 17 0 0-34-2-56-2-21 0-56 2-56 2-12 1-13-17-2-17 0 0 11-2 23-2l33-91-47-140-77 231c13 0 24 2 24 2 12 1 10 18-1 17 0 0-35-2-57-2-4 0-9 0-14 0 38 58 104 96 178 96 55 0 106-22 144-56-1 0-2 0-3 0-21 0-36-18-36-38 0-17 10-32 21-50z"/>
<glyph glyph-name="facebook" unicode="&#57373;" d="M195 397c0-11 0-63 0-63l-47 0 0-78 47 0 0-230 95 0 0 230 65 0c0 0 6 37 8 78-8 0-72 0-72 0 0 0 0 45 0 53 0 8 10 19 21 19 10 0 31 0 52 0 0 10 0 47 0 80-27 0-58 0-71 0-100 0-98-77-98-89z"/>
<glyph glyph-name="rigth" unicode="&#57370;" d="M68 401l0-292 292 147z m444-145l-512-256 0 512z"/>
<glyph glyph-name="up" unicode="&#57374;" d="M256 360l-38 77 23 46 30 0 23-46z m0 0l-145-292 292 0z m0 152l256-512-512 0z"/>
<glyph glyph-name="hamburger" unicode="&#57375;" d="M0 101l501 0 0-45c0 0-140-22-262-22-121 0-239 22-239 22z m159 44l342 0 0 44-501 0 0-44 68 0 46-44z m-63 97c-31 15-69 13-106-17l20-27c28 21 51 23 71 13 4-1 7-3 8-4l2-2c12-7 31-9 44-4l60 22c5 2 14 2 19 0l49-21c13-5 32-4 45 3l28 17c3 2 10 2 13 0l39-18c13-7 32-7 44 0l39 18c3 2 8 1 11-1l19-13 20 27-19 14c-13 9-32 11-46 4l-39-19c-3-1-11-1-14 0l-39 19c-13 6-32 6-45-2l-28-16c-4-2-11-3-15-1l-49 20c-12 5-31 6-43 1l-60-22c-4-1-11 0-14 1-4 3-8 6-14 8z m155 34c0 0 102 0 159 0 69 0 91 0 91 0 0 111-112 202-250 202-139 0-251-91-251-202 0-2 12 0 23 0 23 0 228 0 228 0z"/>
<glyph glyph-name="menu-alt" unicode="&#57377;" d="M119 85l393 0 0-68-393 0z m-51 205l444 0 0-68-444 0z m-68 205l512 0 0-68-512 0z"/>
<glyph glyph-name="menu" unicode="&#57379;" d="M0 85l512 0 0-68-512 0z m0 205l512 0 0-68-512 0z m0 205l512 0 0-68-512 0z"/>
<glyph glyph-name="calendar" unicode="&#57345;" d="M102 68l298 0 0 298-298 0z m-68 366l435 0 0-434-435 0z m357 16c-17 0-31 14-31 31 0 17 14 31 31 31 17 0 31-14 31-31 0-17-14-31-31-31z m-109-315l-31 0 0 118-29-11 0 25 56 23 4 0z m-170 315c-17 0-31 14-31 31 0 17 14 31 31 31 17 0 31-14 31-31 0-17-14-31-31-31z m263 31l31 0 0-62-31 0z m-279 0l31 0 0-62-31 0z"/>
<glyph glyph-name="close" unicode="&#57346;" d="M205 259l-205-204 48-48 205 205 204-205 48 48-205 204 205 205-48 48-204-205-205 205-48-48z"/>
<glyph glyph-name="down" unicode="&#57347;" d="M256 152l38-77-23-46-30 0-23 46z m0 0l145 292-290 0z m0-152l-256 512 512 0z"/>
<glyph glyph-name="like" unicode="&#57348;" d="M358 270c-3 5-7 9-11 13l-11 120c-2 32-30 55-62 52-32-2-55-30-52-62l7-82-161 0c-28 0-51-23-51-51 0-17 9-33 22-42-8-9-13-21-13-35 0-19 11-37 28-45-6-9-10-20-10-31 0-28 22-51 51-51l172 0c1 0 2 0 3 0 2 0 4 0 5 0 34 0 64 16 83 41l0-42 133 0 0 256-133 0z m-288-44c-9 5-15 15-15 26 0 17 13 30 30 30l172 0-10 112c-2 17 11 31 27 33 17 1 31-11 33-28l10-123c17-8 28-25 28-45l0-100c0-28-23-51-52-51l-172 0c0 0-1 0-1 0l-11 0c-21 0-37 16-37 37 0 0 0 1 0 1-1 5-2 9-2 13l0 21c-9 7-15 18-15 31 0 13 6 24 15 31z m374 47c0-9-8-17-17-17-10 0-17 8-17 17 0 9 7 17 17 17 9 0 17-8 17-17z"/>
<glyph glyph-name="unlike" unicode="&#57349;" d="M358 241c-3-5-7-9-11-13l-11-120c-2-32-30-55-62-52-32 2-55 30-52 62l7 82-161 0c-28 0-51 23-51 51 0 17 9 33 22 42-8 9-13 21-13 35 0 19 11 37 28 45-6 9-10 20-10 31 0 28 22 51 51 51l172 0c1 0 2 0 3 0 2 0 4 0 5 0 34 0 64-16 83-41l0 42 133 0 0-256-133 0z m-288 44c-9-5-15-15-15-26 0-17 13-30 30-30l172 0-10-112c-2-17 11-31 27-33 17-1 31 11 33 28l10 123c17 9 28 25 28 45l0 100c0 28-23 51-52 51l-172 0c0 0-1 0-1 0l-11 0c-21 0-37-16-37-37 0 0 0-1 0-1-1-5-2-9-2-13l0-21c-9-7-15-18-15-31 0-13 6-24 15-31z m374-12c0 9-8 17-17 17-10 0-17-8-17-17 0-9 7-17 17-17 9 0 17 8 17 17z"/>
<glyph glyph-name="heart" unicode="&#57366;" d="M469 233c58 65 57 167-2 231-59 64-154 64-214 1-60 57-151 54-208-7-58-62-60-161-7-226l0 0 216-232 216 232z"/>
<glyph glyph-name="favorite-alt" unicode="&#57368;" d="M151 49l-34-24-6 4 11 39 43 30z m105 75l-148-106 51 180-142 114 179 5 60 177 60-177 179-5-142-114 51-180z"/>
<glyph glyph-name="gplus" unicode="&#57382;" d="M342 248c0 12-1 20-3 29l-164 0 0-60 99 0c-4-25-30-75-99-75-60 0-109 49-109 110 0 61 49 110 109 110 34 0 56-14 69-27l47 46c-30 29-69 46-116 46-97 0-175-78-175-175 0-96 78-174 175-174 100 0 167 70 167 170z m170 29l-50 0 0 50-50 0 0-50-50 0 0-50 50 0 0-50 50 0 0 50 50 0z"/>
<glyph glyph-name="instagram" unicode="&#57383;" d="M341 256c0-47-38-85-85-85-47 0-85 38-85 85 0 47 38 85 85 85 47 0 85-38 85-85z m46 0c0 73-58 131-131 131-73 0-131-58-131-131 0-73 58-131 131-131 73 0 131 58 131 131z m36-137c0 17-13 31-30 31-17 0-31-14-31-31 0-17 14-30 31-30 17 0 30 13 30 30z m-167-73c-37 0-117-3-151 10-12 5-20 11-29 20-9 9-15 17-20 29-13 34-10 114-10 151 0 37-3 117 10 151 5 12 11 20 20 29 9 9 17 15 29 20 34 13 114 10 151 10 37 0 117 3 151-10 12-5 20-11 29-20 9-9 15-17 20-29 13-34 10-114 10-151 0-37 3-117-10-151-5-12-11-20-20-29-9-9-17-15-29-20-34-13-114-10-151-10z m256 210c0 35 0 70-2 106-2 41-11 77-41 107-30 30-66 39-107 41-36 2-71 2-106 2-35 0-70 0-106-2-41-2-77-11-107-41-30-30-39-66-41-107-2-36-2-71-2-106 0-35 0-70 2-106 2-41 11-77 41-107 30-30 66-39 107-41 36-2 71-2 106-2 35 0 70 0 106 2 41 2 77 11 107 41 30 30 39 66 41 107 2 36 2 71 2 106z"/>
<glyph glyph-name="linkedin" unicode="&#57386;" d="M113 341l-107 0 0-320 107 0z m6 99c0 31-22 55-59 55-36 0-60-24-60-55 0-31 23-55 59-55l0 0c38 0 61 24 60 55z m159-144l0 45-107 0c0 0 2-30 0-320l107 0 0 179c0 9 1 19 3 26 8 19 25 38 55 38 38 0 54-29 54-72l0-171 106 0 0 183c0 99-53 144-123 144-56 0-81-31-95-52z"/>
<glyph glyph-name="codepen" unicode="&#57380;" d="M62 178l172-115 0 103-95 63z m-18 41l55 37-55 37z m234-156l172 115-77 51-95-63z m-22 141l78 52-78 52-78-52z m-117 79l95 63 0 103-172-115z m274-27l55-37 0 74z m-40 27l77 51-172 115 0-103z m139 51l0-156c0-7-4-14-10-18l-234-156c-3-3-8-4-12-4-4 0-9 1-12 4l-234 156c-6 4-10 11-10 18l0 156c0 7 4 14 10 18l234 156c3 3 8 4 12 4 4 0 9-1 12-4l234-156c6-4 10-11 10-18z"/>
<glyph glyph-name="github" unicode="&#57381;" d="M256 506c141 0 256-115 256-256 0-113-73-209-175-243-13-3-18 5-18 12 0 8 1 36 1 70 0 24-8 40-18 48 57 6 117 28 117 126 0 28-10 51-26 69 3 6 11 32-3 68-21 6-70-27-70-27-20 6-42 9-64 9-22 0-44-3-64-9 0 0-49 33-70 27-14-36-6-62-3-68-16-18-26-41-26-69 0-98 59-120 116-126-7-7-14-18-16-35-15-6-52-18-74 22-14 24-40 26-40 26-25 0-1-16-1-16 16-7 28-37 28-37 15-46 86-30 86-30 0-22 1-42 1-48 0-7-5-15-18-12-102 34-175 130-175 243 0 141 115 256 256 256z m-159-368c-1-1-3-2-4-1-2 1-3 3-3 4 1 1 3 2 5 1 2-1 3-3 2-4z m10-11c-1-2-3-1-5 1-2 2-2 4-1 5 2 1 4 1 6-1 1-2 2-4 0-5z m10-15c-1-1-4 0-5 2-2 2-2 5 0 6 1 1 4 0 5-2 2-2 2-5 0-6z m14-14c-1-2-4-2-6 1-3 2-3 5-2 6 2 2 5 1 7-1 2-2 3-5 1-6z m19-9c0-2-3-3-6-2-3 1-5 3-4 5 0 2 3 3 6 3 3-1 5-4 4-6z m21-1c0-2-2-4-5-4-3 0-6 1-6 4 0 2 3 3 6 3 3 1 5-1 5-3z m20 3c0-2-2-4-5-5-3 0-6 1-6 3 0 2 2 4 5 5 3 0 5-1 6-3z"/>
<glyph glyph-name="twitter" unicode="&#57384;" d="M512 411c-19-8-39-14-60-16 21 13 38 34 46 58-20-12-43-21-67-25-19 20-46 33-77 33-58 0-104-47-104-105 0-8 0-16 2-24-87 4-165 46-216 110-9-16-15-34-15-53 0-37 19-69 47-88-17 1-33 6-47 14l0-2c0-51 36-93 84-103-9-2-18-3-28-3-7 0-13 0-19 1 13-41 51-71 98-72-36-29-82-45-131-45-8 0-17 0-25 1 46-30 102-47 161-47 193 0 299 160 299 299 0 4 0 9-1 13 21 15 39 34 53 54z"/>
<glyph glyph-name="facebook-1" unicode="&#57369;" d="M385 491c-8 2-35 4-66 4-65 0-109-40-109-112l0-63-73 0 0-85 73 0 0-218 88 0 0 218 73 0 11 85-84 0 0 54c0 25 6 42 42 42l45 0z"/>
<glyph glyph-name="design" unicode="&#57372;" d="M487 377l-462 0 0-306 462 0z m-487 85l512 0 0-412-512 0z m117-56c9 0 16 7 16 16 0 9-7 17-16 17-9 0-17-8-17-17 0-9 8-16 17-16z m-39 0c9 0 17 7 17 16 0 9-8 17-17 17-9 0-16-8-16-17 0-9 7-16 16-16z m-38 0c9 0 16 7 16 16 0 9-7 17-16 17-9 0-17-8-17-17 0-9 8-16 17-16z m-9-150l49 0 0-87-49 0z m0 105l49 0 0-97-49 0z m98-15l254 0 0-239-254 0z m75-134l-52-68 209 0-67 90-52-67z m32 52c12 0 22 10 22 22 0 12-10 21-22 21-12 0-22-9-22-21 0-12 10-22 22-22z"/>
<glyph glyph-name="code" unicode="&#57378;" d="M487 377l-462 0 0-306 462 0z m-487 85l512 0 0-412-512 0z m472-56c9 0 16 7 16 16 0 9-7 17-16 17-9 0-17-8-17-17 0-9 8-16 17-16z m-39 0c9 0 17 7 17 16 0 9-8 17-17 17-9 0-16-8-16-17 0-9 7-16 16-16z m-38 0c9 0 16 7 16 16 0 9-7 17-16 17-9 0-17-8-17-17 0-9 8-16 17-16z m-197-253c-18 5-26 16-27 33l0 16c0 11-5 16-14 16l0 13c9 0 14 6 14 17l0 16c0 9 3 16 7 21 5 6 11 10 20 12l3-10c-8-3-13-10-13-23l0-16c0-11-4-19-13-23 9-5 13-12 13-24l0-15c0-13 5-20 13-23z m15 70c0 11 2 22 5 32 3 11 7 20 13 28 6 8 12 13 19 17l3-11c-7-5-12-13-17-24-4-11-6-23-7-37l0-6c0-15 2-29 7-40 4-12 10-21 17-27l-3-10c-7 3-13 9-19 17-6 8-10 17-13 27-3 11-5 22-5 34z m87-1c0-11-1-22-4-32-3-10-8-19-14-28-6-8-13-14-19-17l-4 10c8 6 13 14 18 26 4 12 6 25 6 40l0 2c0 14-2 26-5 38-4 11-9 20-16 27l-3 2 4 10c6-3 12-9 18-17 6-7 11-16 14-26 3-9 5-19 5-29z m12-59c8 3 13 11 13 23l0 15c0 12 4 20 13 24-9 4-13 12-13 24l0 15c0 12-5 20-13 23l3 10c9-2 16-6 20-12 5-6 7-13 7-22l0-15c0-11 5-17 14-17l0-13c-9 0-14-5-14-16l0-15c0-9-2-16-7-22-4-6-11-10-20-12z"/>
<glyph glyph-name="web" unicode="&#57385;" d="M487 377l-462 0 0-306 462 0z m-487 85l512 0 0-412-512 0z m37-58c9 0 17 8 17 17 0 9-8 16-17 16-9 0-16-7-16-16 0-9 7-17 16-17z m112 10c0-5 4-10 10-10l320 0c5 0 10 5 10 10 0 6-5 11-10 11l-320 0c-6 0-10-5-10-11z m35-213l12 55 12 0-17-73-12 0-14 53-14-53-12 0-17 73 12 0 12-55 14 55 10 0z m91 0l11 55 13 0-17-73-12 0-14 53-14-53-13 0-17 73 13 0 11-55 14 55 11 0z m91 0l11 55 13 0-17-73-12 0-14 53-15-53-12 0-17 73 13 0 11-55 14 55 11 0z"/>
<glyph glyph-name="medal" unicode="&#57387;" d="M326 294l99 142-22 0-96-136c7-2 13-4 19-6z m33-19c38-27 62-72 62-122 0-83-67-151-151-151-83 0-151 68-151 151 0 45 20 85 51 113l-153 218 0 28 489 0 0-19z m-158 12c7 4 13 7 21 9l-99 140-26 0z m37 14c10 2 21 3 32 3 6 0 11 0 17-1l93 133-237 0z m214 173l13 19-408 0 13-19z m-182-434c63 0 113 50 113 113 0 63-50 113-113 113-63 0-113-50-113-113 0-63 50-113 113-113z m-1 83l0 49 0-6-7 0-11 13c7 3 13 7 18 12l15 0 0-68 5 0 0-8-27 0 0 8z m1-38c38 0 68 31 68 68 0 38-30 68-68 68-37 0-68-30-68-68 0-37 31-68 68-68z m0-17c-47 0-85 38-85 85 0 47 38 85 85 85 47 0 85-38 85-85 0-47-38-85-85-85z"/>
<glyph glyph-name="smile" unicode="&#57388;" d="M34 0l-34 0 0 512 512 0 0-512z m34 68l376 0 0 376-376 0z m137 273c0-19-15-34-34-34-19 0-34 15-34 34 0 19 15 34 34 34 19 0 34-15 34-34z m170 0c0-19-15-34-34-34-19 0-34 15-34 34 0 19 15 34 34 34 19 0 34-15 34-34z m-238-153l238 0c0 0-18-86-119-86-101 0-119 86-119 86z"/>
<glyph glyph-name="normal" unicode="&#57389;" d="M34 0l-34 0 0 512 512 0 0-512z m34 68l376 0 0 376-376 0z m137 273c0-19-15-34-34-34-19 0-34 15-34 34 0 19 15 34 34 34 19 0 34-15 34-34z m170 0c0-19-15-34-34-34-19 0-34 15-34 34 0 19 15 34 34 34 19 0 34-15 34-34z m-238-153l238 0 0-34-238 0z"/>
<glyph glyph-name="sad" unicode="&#57390;" d="M34 0l-34 0 0 512 512 0 0-512z m34 68l376 0 0 376-376 0z m137 273c0-19-15-34-34-34-19 0-34 15-34 34 0 19 15 34 34 34 19 0 34-15 34-34z m170 0c0-19-15-34-34-34-19 0-34 15-34 34 0 19 15 34 34 34 19 0 34-15 34-34z m0-239l-238 0c0 0 18 86 119 86 101 0 119-86 119-86z"/>
<glyph glyph-name="left" unicode="&#57376;" d="M444 110l0 292-291-146z m-444 146l512 256 0-512z"/>
<glyph glyph-name="framocons" unicode="&#57391;" d="M104 230c-15 22-42 63-33 96 7 29 6 6 14-4 0 0-12 29 9 61 20 32 73 61 113 63 41 2 120 0 132 24 5 10 8 15 7 21 0 0 9-14 7-24-2-11 20 10 17 20-2 10 9-13 5-22-4-9 20 10 16 20-3 10 41-26 38-51-3-25-6-38-12-43-6-6 14-1 16 6 1 8 25-31 32-53 7-22 6-45-9-65-14-20-23-25-26-50 0-2-1-4-1-7 1-8 2-17 2-27 0-101-74-183-165-183-91 0-165 82-165 183 0 12 1 24 3 35z m19-82c18-69 75-120 143-120 67 0 124 51 143 120-6-3-11-5-11-5 0 0 11 23 10 52 0 15 0 38-2 58-8 23-20 44-35 61-3 1-6 2-11 1-17 0-49-15-61-16-12-2-43-3-55 3-12 6-47 14-71 1 0 0-41-8-41-48-1-39-5-49 0-64 4-14 12-44 19-49 6-5-19-2-28 6z m-5 29c-1 5-1 10-1 15 0-5 1-10 1-15z"/>
<glyph glyph-name="download" unicode="&#57392;" d="M352 192l0 48-192 0 0-48-48 0 144-160 144 160z m-192 288l192 0 0-32-192 0z m0-48l192 0 0-64-192 0z m0-80l192 0 0-96-192 0z"/>
<glyph glyph-name="home" unicode="&#57393;" d="M68 427l69 0 0-118-69 0z m-62 78l1 0 0-3-1 0z m128-212l-49 48 61-30-17-34-61 30 69 0 0-239 256 0 0 239 68 0-57-38-34 52 57 37 0-68-325 0 0 68 49-48z m-49 48l17 17 325 0c0 0 13-11 17-17 4-5 17-34 17-34l0-307-393 0 0 307z m51-273l257 0 0 227-257 0z m0 239l257 0 0-240-257 0z m129 188l230-188-461 0z"/>
<glyph glyph-name="tongue" unicode="&#57394;" d="M34 0l-34 0 0 512 512 0 0-512z m34 68l376 0 0 376-376 0z m137 273c0-19-15-34-34-34-19 0-34 15-34 34 0 19 15 34 34 34 19 0 34-15 34-34z m170 0c0-19-15-34-34-34-19 0-34 15-34 34 0 19 15 34 34 34 19 0 34-15 34-34z m-238-153l238 0 0-34c0 0 0-52-51-52-51 0-51 52-51 52l-136 0z"/>
<glyph glyph-name="android" unicode="&#57395;" d="M319 410c-8 0-15 6-15 14 0 9 7 15 15 15 9 0 16-6 16-15 0-8-7-14-16-14z m-122 0c-8 0-15 6-15 14 0 9 7 15 15 15 8 0 15-6 15-15 0-8-7-14-15-14z m131 59l6 9 6 8 12 18c2 3 1 6-1 7-2 2-6 1-7-1l-19-28-6-9c-19 7-39 11-61 11-21 0-42-4-60-11l-6 9-6 8-14 20c-1 2-4 3-7 1-2-1-3-4-1-7l13-18 5-8 6-9c-43-19-72-57-72-99l285 0c0 42-30 80-73 99z m-210-119l-2 0 0-218c0-17 14-31 32-31l23 0c-1-3-1-6-1-9l0-62c0-17 14-30 30-30 17 0 31 13 31 30l0 62c0 3 0 6-1 9l56 0c0-3-1-6-1-9l0-62c0-17 14-30 31-30 17 0 30 13 30 30l0 62c0 3 0 6-1 9l23 0c18 0 33 14 33 31l0 218z m-53 0c-17 0-31-13-31-30l0-127c0-16 14-29 31-29 17 0 30 13 30 29l0 127c0 17-13 30-30 30z m387 0c-17 0-31-13-31-30l0-127c0-16 14-29 31-29 16 0 30 13 30 29l0 127c0 17-14 30-30 30z"/>
<glyph glyph-name="apple" unicode="&#57396;" d="M324 429c17 21 29 52 25 83-28-2-59-19-78-42-17-21-31-51-25-81 29-1 60 17 78 40z m147-293c-11-26-17-38-33-62-21-33-51-74-89-74-33 0-42 22-87 22-45-1-55-22-88-22-37 0-66 37-88 70-60 92-66 200-29 257 26 41 68 65 107 65 40 0 65-22 98-22 31 0 51 22 97 22 35 0 71-19 98-52-86-47-72-171 14-204z"/>
<glyph glyph-name="back" unicode="&#57397;" d="M375 427l-341-171 341-171z m103 0l-68 0 0-342 68 0z"/>
<glyph glyph-name="behance" unicode="&#57398;" d="M327 370l136 0 0 41-136 0z m32-91c-8-9-14-22-16-38l105 0c-1 17-6 30-16 39-10 9-22 13-36 13-16 0-28-4-37-14z m92 56c16-8 30-20 40-37 10-14 16-31 19-50 2-12 2-28 2-49l-171 0c1-25 10-42 25-52 9-6 21-9 34-9 14 0 25 3 34 11 4 4 9 10 12 17l63 0c-2-15-10-30-23-45-21-24-50-36-88-36-31 0-59 10-82 31-24 20-36 53-36 98 0 43 11 76 32 98 22 23 49 34 84 34 20 0 38-3 55-11z m-388-95l0-88 77 0c14 0 24 1 32 5 14 8 21 21 21 42 0 17-7 29-20 36-8 3-18 5-32 5z m0 129l0-74 77 0c14 0 25 3 33 9 9 5 13 15 13 29 0 15-5 26-17 31-9 3-22 5-37 5z m172 22c10-14 14-31 14-51 0-20-4-36-14-49-6-7-14-13-24-19 16-6 28-16 36-29 8-13 13-30 13-49 0-20-5-37-15-53-6-10-13-19-22-26-10-8-22-14-36-17-13-3-28-4-44-4l-143 0 0 333 153 0c38-1 66-13 82-36z"/>
<glyph glyph-name="dailymotion" unicode="&#57399;" d="M0 0l0 512 512 0 0-512z m442 69l0 371-79-17 0-116c-18 23-43 33-76 33-34 0-64-12-89-36-28-27-43-62-43-100 0-42 16-78 47-105 24-21 51-32 84-32 32 0 56 9 79 32l0-30z m-142 202c37 0 66-29 66-68 0-37-29-65-63-65-40 0-69 29-69 66 0 36 29 67 66 67z"/>
<glyph glyph-name="dribble" unicode="&#57400;" d="M495 256c0-16-2-32-5-48-3-15-8-31-14-45-6-14-13-28-22-41-8-12-18-24-29-35-11-11-23-21-35-29-13-9-27-16-41-22-14-6-30-11-45-14-16-3-32-5-48-5-16 0-32 2-48 5-15 3-31 8-45 14-14 6-28 13-41 22-12 8-24 18-35 29-11 11-21 23-29 35-9 13-16 27-22 41-6 14-11 30-14 45-3 16-5 32-5 48 0 16 2 32 5 48 3 15 8 31 14 45 6 14 13 28 22 41 8 12 18 24 29 35 11 11 23 21 35 29 13 9 27 16 41 22 14 6 30 11 45 14 16 3 32 5 48 5 16 0 32-2 48-5 15-3 31-8 45-14 14-6 28-13 41-22 12-8 24-18 35-29 11-11 21-23 29-35 9-13 16-27 22-41 6-14 11-30 14-45 3-16 5-32 5-48z m-326 185c-57-27-99-80-113-143 6 0 91-1 189 25-36 63-73 114-76 118z m93-149c-105-32-206-30-210-29 0-3 0-5 0-7 0-52 20-100 52-136 0 0 56 99 166 134 3 1 5 2 8 3-5 11-11 23-16 35z m129 117c-36 32-83 51-135 51-17 0-33-2-48-6 3-4 41-55 76-119 77 29 106 73 107 74z m-99-186c0 0-1 0-1 0-121-42-160-127-160-128 34-27 78-43 125-43 28 0 55 6 80 16-3 18-15 80-44 155z m78-136c46 31 78 80 87 137-4 1-61 19-127 9 27-74 38-134 40-146z m-70 218c5-10 9-20 13-30 2-3 3-7 5-10 70 9 139-6 142-7 0 48-18 93-46 128-1-1-34-48-114-81z"/>
<glyph glyph-name="dribble-alt" unicode="&#57401;" d="M307 313c95 39 133 94 134 95 33-41 53-93 54-150-4 1-84 19-166 8-2 4-4 8-6 13-5 11-10 23-16 34z m83-255c-3 14-16 84-47 171 77 12 144-9 149-11-11-66-49-124-102-160z m-92 159c34-87 48-160 51-181-28-12-60-19-93-19-55 0-106 19-147 51 1 1 47 100 188 149 0 0 1 0 1 0z m116 218c-1-1-35-52-125-86-41 75-86 134-89 139 18 5 37 7 56 7 61 0 116-23 158-60z m-151-137c6-14 13-27 19-41-3-1-6-2-9-3-129-42-195-158-195-158-38 43-61 99-61 160 0 3 0 5 0 8 4-1 123-3 246 34z m-109 174c3-4 47-64 89-138-115-30-215-29-221-29 16 74 65 136 132 167z"/>
<glyph glyph-name="dropbox" unicode="&#57402;" d="M151 495l105-88-152-94-104 84z m-151-265l104 83 152-94-105-88z m256-11l152 94 104-83-151-99z m256 178l-104-84-152 94 105 88z m-256-196l106-88 45 29 0-33-151-90-151 90 0 33 46-29z"/>
<glyph glyph-name="evernote" unicode="&#57403;" d="M369 270c-7 0-14 0-20-1 2 14 8 31 28 30 23 0 26-22 26-37-9 5-21 7-34 8m97 153c-4 20-16 30-27 34-11 5-35 9-65 13-25 3-53 2-70 2-2 14-12 27-23 31-30 12-75 9-87 6-9-2-20-8-25-16-4-6-7-13-7-23 0-5 0-18 0-30 1-12 1-22 1-22 0-11-9-19-19-19l-48 0c-10 0-18-2-24-5-6-2-10-6-13-10-7-9-8-20-8-30 0 0 0-9 2-26 2-14 17-106 30-135 5-11 9-15 19-20 23-10 76-21 101-24 25-3 40-10 50 9 0 0 1 5 4 12 8 25 9 46 9 62 0 2 2 2 2 0 0-11-2-50 28-61 11-4 35-8 60-10 22-3 38-12 38-69 0-35-7-39-45-39-31 0-43-1-43 23 0 20 20 18 34 18 7 0 2 5 2 17 0 12 8 19 1 20-50 1-80 0-80-63 0-57 22-68 93-68 56 0 75 2 98 74 5 14 16 57 23 130 4 45-4 184-11 219m-372-10l48 0c2 0 5 2 5 5 0 0-1 41-1 52l0 1c0 9 2 17 5 24l2 3c0 0 0 0 0 0l-93-93c-1 0-1 0-1 0 2 1 5 2 5 2 8 4 18 6 30 6"/>
<glyph glyph-name="forward" unicode="&#57404;" d="M137 427l341-171-341-171z m-103 0l68 0 0-342-68 0z"/>
<glyph glyph-name="foursquare" unicode="&#57405;" d="M370 438l-12-59c-1-6-7-12-14-12l-106 0c-11 0-21-10-21-22l0-13c0-12 10-21 21-21l89 0c9 0 16-9 14-17-2-9-11-56-12-61-1-5-6-11-15-11l-72 0c-16-1-19-1-28-12-9-12-89-113-89-113 0-1-1 0-1 1l0 343c0 8 7 15 15 15l218 0c8 0 16-8 13-18m16 74l-270 0c-37 0-48-28-48-46l0-434c0-21 11-28 17-30 6-3 21-4 32 7 0 0 129 151 131 153 2 3 3 3 4 3l81 0c35 0 42 24 45 39 4 12 39 187 50 242 9 43-2 66-42 66"/>
<glyph glyph-name="gdrive" unicode="&#57406;" d="M85 34l86 148 341 0-85-148z m256 148l171 0-171 296-170 0z m-341 0l85-148 171 296-85 148z"/>
<glyph glyph-name="google" unicode="&#57407;" d="M126 304c-5-15-8-31-8-48 0-17 3-32 8-47l-84-66c-16 34-25 72-25 113 0 41 9 79 25 113z m230 70c-25 20-57 33-91 33-65 0-120-43-139-103l-84 65c41 85 125 143 223 143 63 0 119-24 163-64z m-230-166c19-60 74-103 139-103 31 0 59 8 82 22l79-63c-43-42-101-64-161-64-98 0-182 58-223 143z m369 95c4-16 6-32 6-47 0-83-30-149-75-192l-79 63c26 17 44 43 50 77l-132 0 0 99z"/>
<glyph glyph-name="hangout" unicode="&#57408;" d="M468 331c-8 43-26 80-55 111-13 14-26 25-42 35-28 18-59 30-92 34-5 0-9 0-13 1l-29 0c0-1-1 0-1-1-8 0-15-1-22-2-54-11-98-37-132-80-28-35-44-75-47-120-2-22 0-44 4-65 4-16 9-31 16-46 1-1 2-2 2-4 12-23 27-43 46-61 10-9 20-18 32-25 35-23 73-34 115-35 2 0 3 0 3-3 0-22 0-45 0-67 0-1 0-2 0-3 1 0 1 0 2 1 41 19 80 44 114 76 7 6 13 12 20 19 2 3 5 6 8 9 4 4 7 9 11 14 5 5 9 11 13 17 9 13 17 26 23 40 4 7 7 15 10 22 0 0 0 0 0 0 8 21 13 41 15 63 1 7 2 15 2 22 1 16 0 33-3 48z m-293-136c-3-1-5 1-6 4 0 8 0 16 0 24 0 3-1 5 1 7 1 2 2 2 4 3 4 1 8 2 12 4 8 4 12 11 14 19 0 1 1 2 1 4-17 0-35 0-52 0-2 0-3 0-5 0-4 1-7 5-7 10 0 26 0 53 0 79-1 4 0 8 3 11 2 2 4 3 7 3 25 0 51 0 76 0 7 0 11-2 11-14 0-2 0-61 0-90 0-19-8-35-22-48 0-1-1-1-2-2-7-5-15-10-24-12-3-1-7-2-11-2z m152 3c-1 0-1 0-1 0-5-1-10-3-15-3-4-1-7 1-7 5 0 3 0 6 0 9 0 4 0 9 0 14 0 1 0 2 0 4 0 3 2 5 6 6 6 1 12 3 16 8 6 5 9 11 10 19-16 0-32 0-48 0-2 0-3 0-5 0-7 0-11 4-11 11 0 26 0 52 0 78 0 0 0 0 0 1-1 5 1 9 5 11 2 1 3 2 5 2 26 0 51 0 76 0 7 0 11-6 11-14 0-4 0-61 0-90 0-26-16-50-40-60 0 0-1 0-1 0 0-1 0-1 1-1-1 0-1 0-1 1 0 0-1-1-1-1z"/>
<glyph glyph-name="messenger" unicode="&#57409;" d="M256 512c-141 0-256-106-256-237 0-75 37-141 95-185l0-90 88 48c23-7 47-10 73-10 141 0 256 106 256 237 0 131-115 237-256 237z m25-319l-65 69-127-69 140 148 67-69 125 69z"/>
<glyph glyph-name="medium" unicode="&#57410;" d="M0 256c0 141 115 256 256 256 141 0 256-115 256-256 0-141-115-256-256-256-141 0-256 115-256 256z m133 109c-1 1-1 1-2 1-1 0-2 0-2-1-1-1-1-1-1-3l0-173c0-3 2-7 5-8l76-38c1 0 2 0 3 0 2 0 4 2 4 5l0 175c0 1-1 2-1 2z m251-222c4-2 8 0 8 5l0 162-81-130z m-160 80l80-40-80 129z m82 144c0 0-1 0-1 0-1 0-2-1-3-1l-51-83 57-92 83 132c0 1 0 2-1 2z"/>
<glyph glyph-name="pause" unicode="&#57411;" d="M102 427l137 0 0-342-137 0z m171 0l137 0 0-342-137 0z"/>
<glyph glyph-name="paypal" unicode="&#57412;" d="M407 473c21-24 27-51 21-91 0 0-1-6-1-9-22-108-94-145-186-145l-47 0c-12 0-21-9-23-20l1 5-25-156-99 0c-9 0-15 7-14 16l67 420c2 11 11 19 23 19l160 0c55 0 99-12 123-39z m46-111c19-23 22-55 15-93-19-94-82-127-163-127l-12 0c-10 0-19-7-20-17l-1-5-16-99-1-4c-1-10-10-17-20-17l-68 0 31 199 43 0c116 0 189 56 212 163z"/>
<glyph glyph-name="play" unicode="&#57413;" d="M85 427l0-342 342 171z"/>
<glyph glyph-name="reddit" unicode="&#57414;" d="M332 197c-19 0-35 15-35 34 0 19 16 35 35 35 19 0 35-16 35-35 0-19-16-34-35-34m8-67c-18-17-45-26-84-26 0 0 0 0 0 0 0 0 0 0 0 0-39 0-66 9-84 26-6 6-6 15 0 20 5 5 14 5 19 0 13-12 34-18 65-18 0 0 0 0 0 0 0 0 0 0 0 0 31 0 52 6 65 18 5 5 14 5 19 0 6-5 6-14 0-20m-195 101c0 19 16 35 35 35 19 0 35-16 35-35 0-19-16-34-35-34-19 0-35 15-35 34m282 219c13 0 23-10 23-23 0-13-10-23-23-23-13 0-24 10-24 23 0 13 11 23 24 23m85-181c0 34-28 61-62 61-14 0-28-5-38-14-38 24-85 38-136 41l26 83 73-17c2-26 25-47 52-47 28 0 51 23 51 51 0 28-23 51-51 51-20 0-37-11-46-28l-85 20c-7 2-14-2-17-9l-33-104c-55-1-106-15-147-40-10 8-23 13-37 13-34 0-62-27-62-61 0-21 11-39 27-50-1-5-1-10-1-15 0-42 24-81 69-110 43-28 100-43 160-43 60 0 117 15 160 43 45 29 69 68 69 110 0 5 0 9-1 14 18 11 29 30 29 51"/>
<glyph glyph-name="replay" unicode="&#57415;" d="M120 394l-34 38 134 29-43-131-34 38c-35-31-58-77-58-128 0-94 77-170 171-170 80 0 147 55 166 129l33-8c-22-89-103-155-199-155-113 0-205 91-205 204 0 61 27 116 69 154z m136-238c-47 0-85 38-85 85 0 47 38 86 85 86 47 0 85-39 85-86 0-47-38-85-85-85z"/>
<glyph glyph-name="skype" unicode="&#57416;" d="M386 201c0 55-53 74-98 84l-33 7c-24 6-42 10-42 28 0 17 18 24 46 24 49 0 50-36 81-36 20 0 32 16 32 35 0 36-60 59-119 59-55 0-118-23-118-87 0-53 35-72 81-83l46-11c28-7 45-10 45-30 0-16-17-29-45-29-58 0-61 49-95 49-22 0-32-16-32-33 0-39 59-70 130-70 59 0 121 29 121 93z m114-68c0-67-54-121-121-121-28 0-53 10-73 25-16-3-32-5-48-5-122 0-221 99-221 222 0 16 2 32 5 47-16 20-25 46-25 73 0 67 54 121 121 121 27 0 53-9 73-25 15 3 31 5 47 5 123 0 222-99 222-221 0-16-2-32-5-48 15-20 25-45 25-73z"/>
<glyph glyph-name="snapchat" unicode="&#57417;" d="M261 512l0 0c-1 0-1 0-1 0-4 0-9 0-9 0-12 0-34-2-59-13-14-7-26-16-37-27-13-13-23-29-31-47-12-28-9-74-7-110l0-1c0-4 1-8 1-12-2 0-4-1-8-1-7 0-15 2-23 6-3 1-6 2-9 2-5 0-11-2-15-4-6-4-10-9-11-15-1-4-1-12 7-19 5-5 11-9 19-12 2-1 5-2 8-3 9-3 24-8 27-17 2-5 1-11-2-19 0 0 0 0 0 0-1-3-9-22-26-43-10-12-20-22-31-29-14-10-29-16-44-18-6-1-10-7-10-14 0-2 1-3 1-5 0 0 0 0 0 0 3-6 8-11 18-16 11-6 28-10 50-14 1-2 2-8 3-12 1-4 1-8 3-12 1-5 4-11 13-11 4 0 8 1 12 2 7 1 16 3 27 3 6 0 13-1 19-2 13-2 24-10 36-20 18-13 39-29 71-29 1 0 2 0 2 0 1 0 3 0 4 0 32 0 53 16 71 29l0 0c12 10 23 18 36 20 6 1 13 2 19 2 11 0 19-2 27-3 5-1 9-2 12-2l0 0 0 0c7 0 12 4 13 11 2 4 2 8 3 12 1 4 2 10 3 12 22 4 39 8 50 14 10 5 15 10 18 16 0 2 1 3 1 5 0 7-4 13-10 14-68 12-99 86-101 90 0 0 0 0 0 0-3 8-4 14-2 19 3 9 18 14 27 17 3 1 6 2 8 3 9 4 16 8 20 13 5 6 6 11 6 15 0 9-6 16-16 20-3 2-7 2-11 2-3 0-7 0-11-2-8-4-15-6-21-6-3 0-5 1-7 1 0 4 0 7 1 11l0 1c2 37 5 83-7 111-8 18-18 35-31 48-11 11-24 19-38 26-24 11-47 13-58 13"/>
<glyph glyph-name="vk" unicode="&#57418;" d="M281 115c0 0 9 1 14 6 4 4 4 13 4 13 0 0 0 40 19 46 19 6 43-39 68-56 20-13 34-10 34-10l69 1c0 0 35 2 18 29-1 3-9 21-50 58-43 39-38 33 14 100 32 41 44 67 40 77-4 11-27 8-27 8l-77-1c0 0-5 1-10-1-4-3-6-8-6-8 0 0-13-32-29-59-34-57-48-60-53-57-13 8-10 33-10 51 0 55 8 78-17 84-8 2-14 4-36 4-27 0-51 0-64-6-8-5-15-14-11-15 5 0 17-3 23-11 8-10 7-34 7-34 0 0 5-65-10-73-11-6-25 6-56 57-15 27-27 56-27 56 0 0-2 6-6 9-5 3-12 4-12 4l-73 0c0 0-11 0-15-5-4-4-1-13-1-13 0 0 58-131 123-198 59-60 127-56 127-56z"/>
<glyph glyph-name="youtube" unicode="&#57419;" d="M507 353c0 0 5-39 5-79l0-36c0-40-5-79-5-79 0 0-5-33-20-48-20-19-42-19-52-21-71-5-179-5-179-5 0 0-133 1-174 5-11 2-37 2-57 21-15 15-20 48-20 48 0 0-5 39-5 79l0 36c0 40 5 79 5 79 0 0 5 33 20 48 20 20 42 20 52 21 71 5 179 5 179 5l0 0c0 0 108 0 179-5 10-1 32-1 52-21 15-15 20-48 20-48z m-319-165l136 68-136 68z"/>
<glyph glyph-name="whatsapp" unicode="&#57420;" d="M256 512l0 0 0 0c141 0 256-115 256-256 0-141-115-256-256-256-52 0-100 15-141 42l-98-31 32 95c-31 42-49 94-49 150 0 141 115 256 256 256z m-72-130c-5 12-8 12-16 13-2 0-5 0-8 0-10 0-20-3-27-9-7-8-26-26-26-63 0-36 27-72 31-77 3-5 52-81 127-112 59-25 76-22 90-20 19 5 44 19 50 36 6 18 6 33 4 36-1 3-6 5-14 9-7 4-44 22-51 24-7 3-13 2-18-6-7-10-15-20-20-26-5-5-12-6-18-3-9 4-32 12-60 37-22 20-38 44-42 52-4 7 0 12 3 16 4 4 7 8 11 12 4 4 6 7 9 12 2 5 0 10-2 14-1 3-16 40-23 55z"/>
<glyph glyph-name="spotify" unicode="&#57421;" d="M407 285c-82 49-218 54-297 30-13-4-26 3-30 16-4 12 3 26 16 29 91 28 241 23 336-34 11-7 15-21 8-33-7-11-21-15-33-8m-2-73c-6-9-18-12-28-6-69 42-173 54-255 30-10-3-22 2-25 13-3 11 3 22 14 25 93 28 208 14 287-34 10-6 12-18 7-28m-32-69c-4-8-14-10-22-6-60 37-135 45-224 25-9-2-18 4-20 12-1 9 4 17 12 19 98 23 182 13 249-28 8-5 10-15 5-22m-117 369c-141 0-256-115-256-256 0-141 115-256 256-256 141 0 256 115 256 256 0 141-115 256-256 256"/>
<glyph glyph-name="soundcloud" unicode="&#57422;" d="M0 156c0-6 2-11 7-14 5-4 9-5 15-4 5 1 8 3 10 5 2 3 3 7 3 13l0 70c0 5-2 10-5 13-4 3-8 5-13 5-4 0-8-2-12-5-3-3-5-8-5-13z m55-30c0-4 1-8 5-10 3-3 7-4 12-4 5 0 10 1 13 4 3 2 5 6 5 10l0 164c0 4-2 9-5 12-4 4-8 5-13 5-5 0-9-1-12-5-3-3-5-8-5-12z m54-7c0-5 2-9 5-11 4-2 8-3 13-3 5 0 9 1 13 3 3 2 5 6 5 11l0 149c0 5-2 9-6 12-3 4-7 6-12 6-5 0-9-2-12-6-4-3-6-7-6-12z m55-1c0-9 6-13 18-13 12 0 17 4 17 13l0 241c0 14-4 22-12 23-5 2-10 0-15-4-5-5-8-11-8-19l0-241z m56-7l0 263c0 8 2 13 7 15 11 2 21 4 32 4 24 0 47-6 68-18 21-11 38-27 51-47 13-20 20-43 22-67 10 5 20 7 31 7 22 0 41-8 57-24 16-16 24-35 24-58 0-22-8-42-24-58-16-15-34-23-57-23l-207 0c-1 0-2 1-3 2-1 2-1 3-1 4z"/>
<glyph glyph-name="stackoverflow" unicode="&#57423;" d="M322 68l-206 0 0 43 206 1z m139 245l-35 199-44-7 35-200z m-134-146l-206 18-4-43 206-18z m13 56l-199 53-11-42 199-52z m26 50l-177 102-23-37 178-103z m44 30l-116 167-37-24 116-167z m-53-93l0-176-271 0 0 176-35 0 0-210 341 0 0 210z"/>
<glyph glyph-name="stop" unicode="&#57424;" d="M85 427l342 0 0-342-342 0z"/>
<glyph glyph-name="telegram" unicode="&#57425;" d="M213 204l-4-67c6 0 9 3 13 6l31 32 64-47c11-7 20-3 23 11l42 198c4 17-7 25-18 19l-247-95c-16-6-16-16-3-20l64-20 146 93c7 4 13 2 8-3l-119-107z m43-204c-141 0-256 115-256 256 0 141 115 256 256 256 141 0 256-115 256-256 0-141-115-256-256-256z"/>
<glyph glyph-name="tumbrl" unicode="&#57426;" d="M386 108c-10-5-28-9-41-9-41-1-49 29-49 50l0 157 102 0 0 77-101 0 0 129-74 0c-2 0-4-1-4-4-4-39-23-108-100-136l0-66 52 0 0-165c0-56 41-137 152-135 37 1 78 16 87 30z"/>
<glyph glyph-name="pinterest" unicode="&#57427;" d="M490 258c0 131-106 237-236 237-131 0-237-106-237-237 0-97 58-180 142-216-1 16-1 36 4 54 0 0 4 19 30 129-7 15-7 37-7 37 0 36 20 62 45 62 22 0 32-17 32-36 0-22-14-54-21-84-6-25 13-45 37-45 45 0 76 57 76 125 0 52-36 91-99 91-72 0-116-53-116-113 0-21 6-35 15-47 5-5 5-7 4-13-2-4-4-15-5-19-2-6-7-8-12-6-33 14-48 50-48 91 0 67 56 147 168 147 91 0 150-65 150-135 0-93-51-162-127-162-26 0-50 14-58 29-14-54-17-65-17-65-4-18-15-36-24-50 22-7 44-10 68-10 130 0 236 106 236 236z"/>
<glyph glyph-name="expand" unicode="&#57428;" d="M0 461l512 0 0-410-512 0z m34-34l0-342 444 0 0 342z m324-120l103-51-103-51z m-204 0l0-102-103 51z m153 17l-102 0 51 103z m-102-136l102 0-51-103z"/>
<glyph glyph-name="reduce" unicode="&#57429;" d="M0 461l512 0 0-410-512 0z m34-34l0-342 444 0 0 342z m427-120l0-102-103 51z m-410 0l103-51-103-51z m256 103l-51-103-51 103z m0-308l-102 0 51 103z"/>
<glyph glyph-name="trash" unicode="&#57430;" d="M51 375l410 0 0-375-410 0z m34-37l0-300 342 0 0 300z m137 117l-188-20-17-20 0-40 478 0 0 40-17 20-188 20c0 22-15 40-34 40-19 0-34-18-34-40z m-85-131c9 0 17-7 17-17l0-239c0-9-8-17-17-17-10 0-18 8-18 17l0 239c0 10 8 17 18 17z m102-34c9 0 17-8 17-17l0-205c0-9-8-17-17-17-9 0-17 8-17 17l0 205c0 9 8 17 17 17z m102-34c10 0 17-8 17-17l0-171c0-9-7-17-17-17-9 0-17 8-17 17l0 171c0 9 8 17 17 17z"/>
<glyph glyph-name="upload" unicode="&#57432;" d="M154 324l0-51 204 0 0 51 52 0-154 171-154-171z m204-307l-204 0 0 34 204 0z m0 51l-204 0 0 69 204 0z m0 86l-204 0 0 102 204 0z"/>
<glyph glyph-name="volume-disabled" unicode="&#57431;" d="M332 493c2-1 5-3 6-6 2-3 3-6 3-9l0-444c0-3-1-6-3-9-1-2-4-4-6-6-2-1-3-1-4-1-2-1-3-1-4-1-2 0-4 0-5 1-2 0-3 1-5 2l-170 134-56 0c-15 0-37 17-37 17 0 0-16 17-16 29l-1 112c0 13 17 29 17 29 0 0 21 17 36 17l57 0 170 134c3 2 5 3 9 3 3 0 6-1 9-2z m72-237l-46-46 23-22 46 46 46-46 22 22-46 46 46 46-22 22-46-46-46 46-23-22z"/>
<glyph glyph-name="volume-up" unicode="&#57433;" d="M444 273l0 51-34 0 0-51-52 0 0-34 52 0 0-51 34 0 0 51 51 0 0 34z m-112 220c2-1 5-3 6-6 2-3 3-6 3-9l0-444c0-3-1-6-3-9-1-2-4-4-6-6-2-1-3-1-4-1-2-1-3-1-4-1-2 0-4 0-5 1-2 0-3 1-5 2l-170 134-56 0c-15 0-37 17-37 17 0 0-16 17-16 29l-1 112c0 13 17 29 17 29 0 0 21 17 36 17l57 0 170 134c3 2 5 3 9 3 3 0 6-1 9-2z"/>
<glyph glyph-name="volume-down" unicode="&#57434;" d="M332 493c2-1 5-3 6-6 2-3 3-6 3-9l0-444c0-3-1-6-3-9-1-2-4-4-6-6-2-1-3-1-4-1-2-1-3-1-4-1-2 0-4 0-5 1-2 0-3 1-5 2l-170 134-56 0c-15 0-37 17-37 17 0 0-16 17-16 29l-1 112c0 13 17 29 17 29 0 0 21 17 36 17l57 0 170 134c3 2 5 3 9 3 3 0 6-1 9-2z m163-220l0-34-137 0 0 34z"/>
<glyph glyph-name="add-user" unicode="&#57435;" d="M427 444l51 0 0-34-51 0 0-52-34 0 0 52-52 0 0 34 52 0 0 51 34 0z m-281 0c-6-10-9-22-9-34 0-38 30-69 68-69 38 0 68 31 68 69 0 12-3 24-9 34z m14-126c-34 16-58 51-58 92 0 56 46 102 103 102 56 0 102-46 102-102 0-41-23-76-57-92 63-20 108-78 108-147l0-171-307 0 0 171c0 69 46 127 109 147z m-75-147l0-137 239 0 0 137c0 66-53 119-119 119-66 0-120-53-120-119z"/>
<glyph glyph-name="delete-user" unicode="&#57436;" d="M146 444c-6-10-9-22-9-34 0-38 30-69 68-69 38 0 68 31 68 69 0 12-3 24-9 34z m14-126c-34 16-58 51-58 92 0 56 46 102 103 102 56 0 102-46 102-102 0-41-23-76-57-92 63-20 108-78 108-147l0-171-307 0 0 171c0 69 46 127 109 147z m-75-147l0-137 239 0 0 137c0 66-53 119-119 119-66 0-120-53-120-119z m393 273l0-34-137 0 0 34z"/>
<glyph glyph-name="family" unicode="&#57437;" d="M220 218c5 6 13 11 21 15-15 8-24 24-24 42 0 27 21 49 47 49 27 0 48-22 48-49 0-18-10-34-24-42 8-4 15-8 20-15 6 39 33 71 69 83-10 4-18 10-25 18l-32 0 12 51c0 2 1 4 1 5 4 39 37 69 77 69 40 0 73-30 76-69 1-1 1-3 1-5l12-51-25 0c-3 0-5 0-7 0-7-8-15-14-25-18 41-14 70-52 70-97l0-136-512 0 0 127c0 50 33 92 78 106-24 12-41 38-41 68 0 41 33 75 74 75 41 0 74-34 74-75 0-30-17-56-41-68 38-12 67-44 76-83z m-152 176c-4-8-6-16-6-25 0-28 22-50 49-50 27 0 49 22 49 50 0 9-2 17-6 25z m297-1c-4-7-7-15-7-24 0-28 23-50 52-50 28 0 51 22 51 50 0 9-3 18-7 25-4-2-10-2-19 0-25 6-25 12-25 12 0 0 0-6-26-12-7-2-14-2-19-1z m-35-192l0-108 159 0 0 108c0 44-35 80-79 80-44 0-80-36-80-80z m-305-6l0-102 172 0 0 102c0 47-38 86-86 86-48 0-86-39-86-86z m239 48c18 0 32 14 32 32 0 18-14 33-32 33-17 0-32-15-32-33 0-18 15-32 32-32z m-46-70l0-87 93 0 0 87c0 26-21 47-47 47-26 0-46-21-46-47z"/>
<glyph glyph-name="group" unicode="&#57367;" d="M365 428c-4-7-7-16-7-25 0-28 22-50 48-50 26 0 47 22 47 50 0 9-2 18-6 25z m0-325l0-69-215 0 0 66-150 0 0 132c0 48 32 89 76 103-24 12-40 38-40 67 0 42 32 76 71 76 40 0 72-34 72-76 0-29-16-55-40-67 34-11 61-38 71-73 5 3 10 5 16 7-24 12-40 38-40 67 0 42 32 76 71 76 40 0 72-34 72-76 0-29-16-55-40-67 5-2 10-4 14-6 10 35 37 62 71 73-23 12-39 38-39 67 0 41 32 75 71 75 39 0 71-34 71-75 0-29-17-55-40-67 43-14 75-54 75-102l0-131z m-66 134c-12 7-26 11-42 11-46 0-83-37-83-83l0-106 167 0 0 44-42 0 0 131c0 1 0 2 0 3z m-83 124c-4-7-6-16-6-25 0-28 21-50 47-50 27 0 48 22 48 50 0 9-2 18-6 25z m-27-113c-8 38-42 66-82 66-46 0-83-37-83-83l0-106 126 0 0 41c0 33 15 63 39 82z m-123 180c-4-8-6-16-6-26 0-27 21-50 47-50 27 0 48 23 48 50 0 10-2 18-6 26z m257-195l0-105 165 0 0 105c0 46-37 83-82 83-46 0-83-37-83-83z"/>
<glyph glyph-name="man" unicode="&#57438;" d="M197 444c-6-10-9-22-9-34 0-38 30-69 68-69 38 0 68 31 68 69 0 12-3 24-9 34z m14-126c-34 16-57 51-57 92 0 56 45 102 102 102 57 0 102-46 102-102 0-41-23-76-57-92 63-20 109-78 109-147l0-171-308 0 0 171c0 69 46 127 109 147z m-74-147l0-137 238 0 0 137c0 66-53 119-119 119-66 0-119-53-119-119z"/>
<glyph glyph-name="workgroup" unicode="&#57344;" d="M71 485c-2-4-4-9-4-14 0-15 12-27 27-27 15 0 26 12 26 27 0 5-1 10-3 14z m5-51c-13 7-22 21-22 37 0 23 18 41 40 41 22 0 40-18 40-41 0-16-9-30-23-37 25-7 43-30 43-57l0-70-120 0 0 70c0 27 18 50 42 57z m-29-57l0-56 93 0 0 56c0 26-20 46-46 46-26 0-47-21-47-46z m186-200c-2-4-4-8-4-13 0-15 12-27 27-27 15 0 27 12 27 27 0 5-2 9-4 13z m5-50c-13 7-22 21-22 37 0 22 18 41 40 41 22 0 40-19 40-41 0-16-9-30-22-37 24-7 42-30 42-57l0-70-120 0 0 70c0 27 18 50 42 57z m-28-57l0-56 92 0 0 56c0 25-20 46-46 46-26 0-46-21-46-46z m185 415c-2-4-3-9-3-14 0-15 11-27 26-27 15 0 27 12 27 27 0 5-2 10-4 14z m6-51c-14 7-23 21-23 37 0 23 18 41 40 41 22 0 40-18 40-41 0-16-9-30-22-37 24-7 42-30 42-57l0-70-120 0 0 70c0 27 18 50 43 57z m-29-57l0-56 93 0 0 56c0 26-21 46-47 46-25 0-46-21-46-46z m-277-91c-4-2-5-8-3-12l60-103c2-4 7-6 11-3 4 2 6 7 3 11l-59 104c-3 4-8 5-12 3z m254-118c-4 2-6 7-3 11l59 104c3 4 8 5 12 3 4-2 5-8 3-12l-60-103c-2-4-7-6-11-3z m-25 233c0-5-4-8-8-8l-120 0c-4 0-8 3-8 8 0 5 4 9 8 9l120 0c4 0 8-4 8-9z"/>
<glyph glyph-name="woman" unicode="&#57439;" d="M212 317c-12 6-23 14-32 24l-43 0 15 71c1 2 1 4 2 7 5 52 49 93 102 93 54 0 97-41 102-93 1-3 1-5 2-7l15-71-34 0c-3 0-6 0-9 0-9-10-20-18-32-24 54-18 93-69 93-129l0-188-274 0 0 188c0 60 39 111 93 129z m-15 126c-6-10-9-21-9-33 0-38 30-69 68-69 38 0 68 31 68 69 0 12-3 24-9 35-5-3-13-4-25-1-34 8-34 17-34 17 0 0 0-9-34-17-10-3-18-2-25-1z m-47-259l0-150 212 0 0 150c0 59-47 106-106 106-59 0-106-47-106-106z"/>
<glyph glyph-name="pizza" unicode="&#57365;" d="M335 52c-26-11-55-18-85-18-117 0-213 99-213 222 0 123 96 222 213 222 118 0 214-99 214-222 0-6 0-12-1-18l-37 1c0 5 1 11 1 17 0 104-81 188-180 188-99 0-179-84-179-188 0-104 80-188 179-188 26 0 51 6 73 16z m-68 314c-12 0-21 10-21 22 0 12 9 22 21 22 12 0 21-10 21-22 0-12-9-22-21-22z m-129-187c-20 0-36 16-36 36 0 20 16 36 36 36 20 0 36-16 36-36 0-20-16-36-36-36z m14 130c-11 0-21 9-21 21 0 12 10 22 21 22 12 0 22-10 22-22 0-12-10-21-22-21z m108-29c-8 0-14 6-14 14 0 8 6 15 14 15 8 0 14-7 14-15 0-8-6-14-14-14z m93-15c-4 0-7 3-7 7 0 4 3 8 7 8 4 0 7-4 7-8 0-4-3-7-7-7z m-118-61c8 1 15-6 15-14 0-8-6-14-14-15-8 0-14 6-15 14 0 8 6 15 14 15z m31-85c4 0 8-3 8-7 0-4-3-7-7-7-4 0-7 3-7 7-1 4 3 7 6 7z m-78 2c-8 0-14 6-14 14 0 8 6 15 14 15 8 0 15-7 15-15 0-8-7-14-15-14z m158 188c-16 0-29 12-29 28 0 16 13 29 29 29 15 0 28-13 28-29 0-16-13-28-28-28z m-73-87l221-2c0 0 7-50-18-102-26-51-67-85-67-85z"/>
</font>
</defs>
</svg>
